HIERARCHY
ROOT root
{
	OFFSET 0.000000 0.000000 0.000000
	CHANNELS 6 Xposition Yposition Zposition Zrotation Yrotation Xrotation
	JOINT lhip
	{
		OFFSET 0.058581 -0.082280 -0.017664
		CHANNELS 3 Zrotation Yrotation Xrotation
		JOINT lknee
		{
			OFFSET 0.043451 -0.386469 0.008037
			CHANNELS 3 Zrotation Yrotation Xrotation
			JOINT lankle
			{
				OFFSET -0.014790 -0.426874 -0.037428
				CHANNELS 3 Zrotation Yrotation Xrotation
				JOINT ltoe
				{
					OFFSET 0.041054 -0.060286 0.122042
					CHANNELS 3 Zrotation Yrotation Xrotation
					End Site
					{
						OFFSET 0.000000 0.000000 0.000000
					}
				}
			}
		}
	}
	JOINT rhip
	{
		OFFSET -0.060310 -0.090513 -0.013543
		CHANNELS 3 Zrotation Yrotation Xrotation
		JOINT rknee
		{
			OFFSET -0.043257 -0.383688 -0.004843
			CHANNELS 3 Zrotation Yrotation Xrotation
			JOINT rankle
			{
				OFFSET 0.019056 -0.420046 -0.034562
				CHANNELS 3 Zrotation Yrotation Xrotation
				JOINT rtoe
				{
					OFFSET -0.034840 -0.062106 0.130323
					CHANNELS 3 Zrotation Yrotation Xrotation
					End Site
					{
						OFFSET 0.000000 0.000000 0.000000
					}
				}
			}
		}
	}
	JOINT lowerback
	{
		OFFSET 0.004439 0.124404 -0.038385
		CHANNELS 3 Zrotation Yrotation Xrotation
		JOINT upperback
		{
			OFFSET 0.004488 0.137956 0.026820
			CHANNELS 3 Zrotation Yrotation Xrotation
			JOINT chest
			{
				OFFSET -0.002265 0.056032 0.002855
				CHANNELS 3 Zrotation Yrotation Xrotation
				JOINT lowerneck
				{
					OFFSET -0.013390 0.211636 -0.033468
					CHANNELS 3 Zrotation Yrotation Xrotation
					JOINT upperneck
					{
						OFFSET 0.010113 0.088937 0.050410
						CHANNELS 3 Zrotation Yrotation Xrotation
						End Site
						{
							OFFSET 0.000000 0.000000 0.000000
						}
					}
				}
				JOINT lclavicle
				{
					OFFSET 0.071702 0.114000 -0.018898
					CHANNELS 3 Zrotation Yrotation Xrotation
					JOINT lshoulder
					{
						OFFSET 0.122921 0.045205 -0.019046
						CHANNELS 3 Zrotation Yrotation Xrotation
						JOINT lelbow
						{
							OFFSET 0.255332 -0.015649 -0.022946
							CHANNELS 3 Zrotation Yrotation Xrotation
							JOINT lwrist
							{
								OFFSET 0.265709 0.012698 -0.007375
								CHANNELS 3 Zrotation Yrotation Xrotation
								End Site
								{
									OFFSET 0.000000 0.000000 0.000000
								}
							}
						}
					}
				}
				JOINT rclavicle
				{
					OFFSET -0.082954 0.112472 -0.023707
					CHANNELS 3 Zrotation Yrotation Xrotation
					JOINT rshoulder
					{
						OFFSET -0.113228 0.046853 -0.008472
						CHANNELS 3 Zrotation Yrotation Xrotation
						JOINT relbow
						{
							OFFSET -0.260127 -0.014369 -0.031269
							CHANNELS 3 Zrotation Yrotation Xrotation
							JOINT rwrist
							{
								OFFSET -0.269108 0.006794 -0.006027
								CHANNELS 3 Zrotation Yrotation Xrotation
								End Site
								{
									OFFSET 0.000000 0.000000 0.000000
								}
							}
						}
					}
				}
			}
		}
	}
}
MOTION
Frames: 10
Frame Time: 0.033333
0.302872 -1.876637 1.012651 -179.545885 0.796569 93.248504 1.270682 2.597053 -4.649146 -6.129457 -6.984337 -0.821014 2.602849 8.075048 -12.485567 0.000000 -0.000000 0.000000 1.919693 -3.529668 -5.545820 5.038063 -5.543191 1.157835 2.935396 -3.710535 -11.610646 0.000000 -0.000000 0.000000 0.685691 0.810724 11.065909 -1.749013 -0.752917 -2.004048 1.243507 -0.163029 -5.882962 -2.144035 16.188967 13.540936 -2.312335 18.200298 6.935200 -23.965121 -0.267769 2.658884 -52.651945 -3.847936 5.122925 15.298241 -25.997956 -4.322807 8.787656 -3.817682 -6.711963 22.074735 5.125145 5.298871 53.390443 12.133979 13.315030 -3.819484 27.382377 9.756395 1.072767 3.842462 -3.151018 
0.303477 -1.876420 1.012585 -179.286753 0.750821 93.403347 1.269388 2.370575 -4.909042 -6.147086 -6.914200 -0.685070 2.565589 8.073599 -12.543821 0.000000 -0.000000 0.000000 1.931381 -3.496332 -5.796055 5.039066 -5.547695 1.356352 3.176047 -4.005775 -11.786845 0.000000 -0.000000 0.000000 0.587031 0.741090 11.375515 -1.691989 -0.655262 -2.763821 1.321420 -0.154584 -5.711485 -1.959813 16.086293 13.423433 -2.425688 18.406736 6.925908 -23.937801 0.121656 2.722857 -52.719613 -3.600509 5.015815 15.288312 -25.416097 -4.431798 8.217101 -4.131120 -7.638450 21.851438 4.919666 5.242808 53.507763 12.077100 13.598634 -3.697868 27.392551 10.223703 1.233552 4.099753 -3.511869 
0.303903 -1.875703 1.012943 -179.023986 0.691696 93.389290 1.259631 2.155042 -4.898706 -6.152113 -6.938619 -0.606975 2.539504 8.040112 -12.573746 0.000000 -0.000000 0.000000 1.918548 -3.398168 -5.661631 4.968711 -5.575874 1.332464 3.216554 -4.206187 -11.791161 0.000000 -0.000000 0.000000 0.569236 0.745657 11.363828 -1.690011 -0.639272 -2.910848 1.346321 -0.137604 -5.535249 -1.770901 15.945593 13.659346 -2.457824 18.719800 6.303676 -24.138892 0.163213 2.753086 -52.527847 -3.258465 4.911327 15.373318 -25.088981 -4.527641 7.325407 -3.690241 -7.516558 21.697509 4.945078 5.251619 53.537265 11.774992 13.748164 -3.640475 27.433114 10.703521 2.753533 3.118378 -4.294398 
0.304545 -1.874514 1.013101 -178.638399 0.658114 93.482043 1.321559 1.979058 -4.939789 -6.187075 -7.073226 -0.677995 2.517127 7.948744 -12.521252 0.000000 -0.000000 0.000000 1.971802 -3.415578 -5.544822 4.894016 -5.575061 1.158776 3.232479 -4.342853 -11.732289 0.000000 -0.000000 0.000000 0.609601 0.759553 11.365392 -1.706466 -0.644408 -3.017664 1.399318 -0.094540 -5.487302 -1.144267 16.157259 13.624729 -2.268472 19.589411 5.436905 -24.323730 0.387513 2.623563 -52.393917 -2.928722 4.756328 15.257959 -24.598427 -4.603428 7.318440 -3.756758 -7.130835 21.550384 4.838586 5.230533 53.560427 11.623528 13.811162 -3.585831 27.324865 10.791438 2.894264 2.832087 -4.318920 
0.304700 -1.874003 1.013124 -178.516973 0.645681 93.494467 1.343358 1.930288 -4.851725 -6.197125 -7.161135 -0.846242 2.498543 7.946245 -12.435212 0.000000 -0.000000 0.000000 1.996585 -3.429486 -5.444412 4.855572 -5.515156 1.034664 3.237700 -4.391229 -11.704677 0.000000 -0.000000 0.000000 0.623200 0.779770 11.376806 -1.722462 -0.642075 -2.986551 1.430601 -0.090060 -5.510886 -0.828784 16.337288 13.518015 -2.160349 20.021880 5.152304 -24.361058 0.446537 2.559237 -52.412362 -2.863344 4.735175 15.228232 -24.475749 -4.638417 7.642624 -3.915006 -7.061012 21.526499 4.808146 5.212106 53.561386 11.640384 13.792641 -3.605729 27.215296 10.617554 2.335608 3.088127 -4.082074 
0.304932 -1.872666 1.013058 -178.296333 0.599568 93.507140 1.376886 1.820861 -4.619975 -6.230210 -7.356855 -1.245818 2.436010 8.012463 -12.172487 0.000000 -0.000000 0.000000 2.021160 -3.415145 -5.182243 4.763446 -5.315820 0.708363 3.251151 -4.554942 -11.590787 0.000000 -0.000000 0.000000 0.634416 0.866168 11.362616 -1.791283 -0.609932 -2.837609 1.503440 -0.109499 -5.604166 -0.139598 16.875564 13.304115 -1.928412 21.189540 4.688759 -24.392908 0.547394 2.424149 -52.545226 -2.794437 4.723928 15.240978 -24.365752 -4.687024 8.106871 -4.182560 -7.051847 21.524772 4.750647 5.169490 53.580639 11.666025 13.716475 -3.691263 26.868662 10.166844 1.404742 3.744018 -3.600285 
0.305193 -1.871330 1.013131 -178.090782 0.550544 93.565819 1.385065 1.771396 -4.564843 -6.258479 -7.478594 -1.342097 2.409191 7.997243 -12.117461 0.000000 -0.000000 0.000000 2.017511 -3.446854 -4.983886 4.710597 -5.168506 0.434100 3.270763 -4.632056 -11.512825 0.000000 -0.000000 0.000000 0.608944 1.002544 11.261354 -1.863732 -0.584323 -2.706425 1.599999 -0.103925 -5.726121 0.383313 17.785737 13.301335 -1.692655 22.644337 4.285182 -24.419169 0.495383 2.398137 -52.697994 -2.689827 4.726240 15.308597 -24.586909 -4.780418 7.979655 -4.132615 -7.187631 21.528709 4.735404 5.266155 53.558799 11.543944 13.629129 -3.862027 26.607736 10.004160 1.911281 3.790764 -3.527796 
0.305497 -1.870190 1.013253 -177.857291 0.507866 93.651008 1.359152 1.723057 -4.734446 -6.259587 -7.515150 -1.052390 2.501925 7.917463 -12.302934 0.000000 -0.000000 0.000000 1.995251 -3.454437 -4.926185 4.695248 -5.120558 0.348128 3.295114 -4.724762 -11.532394 0.000000 -0.000000 0.000000 0.586671 1.132561 11.165703 -1.915646 -0.582182 -2.655458 1.655933 -0.055790 -5.822149 0.771832 18.682048 13.500609 -1.559280 23.929058 3.919697 -24.395788 0.402718 2.442660 -52.827958 -2.692568 4.761542 15.260777 -25.049412 -4.799104 7.886164 -4.060118 -7.330904 21.577056 4.695314 5.443403 53.492068 11.432617 13.493940 -4.120090 26.462405 9.961314 2.424572 3.804420 -3.115635 
0.305731 -1.869090 1.013393 -177.608317 0.465422 93.710338 1.310177 1.680123 -4.890715 -6.251545 -7.565533 -0.717464 2.670632 7.851130 -12.548933 0.000000 -0.000000 0.000000 1.929036 -3.453434 -5.021848 4.718253 -5.156951 0.609158 3.340974 -4.776878 -11.726066 0.000000 -0.000000 0.000000 0.604953 1.203537 11.146545 -1.959693 -0.565359 -2.666886 1.644364 -0.007483 -5.839493 1.033759 19.231151 13.586399 -1.532230 24.675018 3.640150 -24.339936 0.393505 2.402198 -52.934988 -2.816546 4.844912 15.187743 -25.640472 -4.666416 7.995382 -4.179045 -7.409154 21.596494 4.579145 5.516542 53.460483 11.362069 13.367028 -4.380343 26.407561 9.947144 2.352305 4.060534 -2.437492 
0.305880 -1.867831 1.013571 -177.351941 0.429855 93.701237 1.263900 1.672112 -4.878368 -6.248360 -7.716431 -0.534644 2.811409 7.836502 -12.753410 0.000000 -0.000000 0.000000 1.848178 -3.398060 -5.180473 4.750702 -5.194704 1.172649 3.372123 -4.845034 -12.083473 0.000000 -0.000000 0.000000 0.655682 1.187831 11.235274 -1.994588 -0.513643 -2.745589 1.587163 0.006938 -5.761321 1.137043 19.362199 13.428920 -1.555696 24.830015 3.568324 -24.288482 0.462140 2.286342 -52.995809 -2.987205 4.954431 15.195426 -26.327411 -4.427580 8.161265 -4.376610 -7.416314 21.556152 4.441413 5.444854 53.527116 11.308622 13.273975 -4.595611 26.314518 9.772639 1.948531 4.277185 -2.005423 
